<svg xmlns="http://www.w3.org/2000/svg" viewBox="0 0 427.9 55.63">
  <defs>
    <style>.cls-1 {
      fill: #fff;
    }</style>
  </defs>
  <g id="Layer_2" data-name="Layer 2">
    <g id="Layer_1-2" data-name="Layer 1">
      <path class="cls-1"
            d="M172.27,5.87V9.31h-.93V.06h3.88A1.7,1.7,0,0,1,177.1,2V4a1.7,1.7,0,0,1-1.88,1.9h-2.95Zm0-5V5h2.92a.88.88,0,0,0,1-1V1.85a.87.87,0,0,0-1-1h-2.92Z"></path>
      <path class="cls-1"
            d="M188.08,5.52h-2.51V9.3h-.93V.05h3.88A1.7,1.7,0,0,1,190.4,2V3.62A1.66,1.66,0,0,1,189,5.48l1.39,3.82h-1ZM185.57.87V4.72h2.92a.88.88,0,0,0,1-1V1.86a.88.88,0,0,0-1-1h-2.92Z"></path>
      <path class="cls-1"
            d="M199.86,9.36a1.71,1.71,0,0,1-1.9-1.9V1.9a1.71,1.71,0,0,1,1.9-1.9h2.32a1.7,1.7,0,0,1,1.88,1.9V7.46a1.7,1.7,0,0,1-1.88,1.9Zm-1-1.85a.9.9,0,0,0,1,1h2.26a.88.88,0,0,0,1-1V1.8a.88.88,0,0,0-1-1h-2.26a.88.88,0,0,0-1,1Z"></path>
      <path class="cls-1"
            d="M216.92.06V7.47A1.7,1.7,0,0,1,215,9.37h-1.69a1.71,1.71,0,0,1-1.9-1.9V6.38h.93V7.55a.89.89,0,0,0,1,1H215a.89.89,0,0,0,1-1V.07h.92Z"></path>
      <path class="cls-1" d="M224.7.06h5.59V.87h-4.66V4.12H230V4.9h-4.34V8.5h4.76v.81H224.7Z"></path>
      <path class="cls-1"
            d="M243.73,6.28V7.46a1.71,1.71,0,0,1-1.9,1.9h-2.16a1.71,1.71,0,0,1-1.9-1.9V1.9a1.71,1.71,0,0,1,1.9-1.9h2.16a1.71,1.71,0,0,1,1.9,1.9v.84h-.93V1.81a.87.87,0,0,0-1-1H239.7a.88.88,0,0,0-1,1V7.56a.88.88,0,0,0,1,1h2.12a.87.87,0,0,0,1-1V6.29h.93Z"></path>
      <path class="cls-1" d="M254,.87V9.31h-.94V.87h-2.52V.06h6V.87Z"></path>
      <polygon class="cls-1"
               points="94.43 29.19 81.79 49.06 73.01 35.22 64.21 49.06 51.63 29.19 43.86 29.19 60.64 55.62 67.82 55.62 73.02 47.44 78.22 55.62 85.4 55.62 102.19 29.19 94.43 29.19"></polygon>
      <path class="cls-1"
            d="M24,29.19,40.76,55.62H33l-3.65-5.79H11.45L7.76,55.62H0L16.79,29.19ZM15,44.24H25.77l-5.36-8.49Z"></path>
      <path class="cls-1"
            d="M129.17,29.19,146,55.62h-7.78l-3.65-5.79H116.65L113,55.62H105.2L122,29.19Zm-9,15.05H131l-5.36-8.49Z"></path>
      <path class="cls-1"
            d="M164.9,29.19V40.54l17.62-11.35h11.87L174.19,41.6l21.67,14H184L164.91,42.7V55.63h-7.22V29.2h7.21Z"></path>
      <path class="cls-1"
            d="M241.46,29.19v5.89H216V39.4h16.15v5.79H216v4.55h25.43v5.89H208.81V29.2h32.65Z"></path>
      <path class="cls-1"
            d="M265.61,29.19l22.85,18.56V29.19h7.24V55.62h-7.24L265.61,37.08V55.62h-7.22V29.19Z"></path>
      <path class="cls-1" d="M320,29.19V55.62h-7.22V29.19Z"></path>
      <path class="cls-1"
            d="M344.15,29.19,367,47.75V29.19h7.24V55.62H367L344.15,37.08V55.62h-7.22V29.19Z"></path>
      <path class="cls-1"
            d="M397.86,49.74h22.81V45.63h-9V40.05h16.23V55.62H390.65V29.19H427.9v5.89h-30V49.74Z"></path>
    </g>
  </g>
</svg>
