<svg version="1.2" xmlns="http://www.w3.org/2000/svg" viewBox="0 0 225 207" width="225" height="207">
	<title>mino_hair_1</title>
	<style>
		.s0 { fill: #444342 } 
		.s1 { opacity: .3;fill: #000000 } 
		.s2 { fill: #faac22 } 
		.s3 { opacity: .3;fill: #ffffff } 
		.s4 { fill: #1b1a18 } 
	</style>
	<path id="Hair" class="s0" d="m39.2 201.4c-15.3 0-26.9-7.9-31.1-11.3-2.6-2.1-3.6-5.4-2.7-8.5 0.6-2.1 2-3.9 3.9-4.9l5.7-3-4.4-4.8q-1.1-1.2-1.6-2.7c-0.7-2-0.6-4.3 0.4-6.2 4.7-9.5 8.6-19.6 11.7-29.8 3.7-11.9 5-20.2 6.1-27.4 0.4-2.6 0.8-5 1.2-7.3 0.3-1.3 2.8-13.4 9.8-28.2 9.3-19.2 21.9-34.2 37.5-44.4 4.4-3 28.1-17.6 55.3-17.6 11.6 0 22.2 2.7 31.5 8.1 22.3 12.7 31.8 36.8 35.5 50 2.3 8.1 3.4 16.5 3.3 25.1v0.1 0.2c0.4 6.9 1.4 13.8 2.9 20.5 2.7 11.5 7 22.5 12.7 32.8 2 3.5 1.1 7.8-2 10.2-6.6 5.3-13.9 9.4-21.8 12.3-8.8 3.2-18.2 4.9-27.7 4.9-2.4 0-4.9-0.1-7.3-0.3-3.5-0.4-6.5-3-7.1-6.5l-5.4-29.4-0.2-0.5c-1.5-3.4-5.7-12-13.7-16.8l-7.2-4.3-0.4 8.4c-0.4 11-2.8 21.7-6.9 31.7-10.3 25.2-28.9 39.2-39 45.3-1.3 0.8-2.7 1.2-4.1 1.2-2.2 0-4.3-0.9-5.8-2.4l-2.8-3-3.5 2.1c-4.7 2.8-9.8 4.7-15 5.7-2.6 0.4-5.2 0.7-7.8 0.7z"/>
	<path id="Shadow" class="s1" d="m16.5 196.1c13.4 9.3 30.1 3.8 32.3 3 18.8-6.5 29.4-26.8 28.7-25q-4.6 10.9-9.2 21.8c7.3-2.8 26.2-11.1 40.5-31.4 15.7-22.4 15.9-45.3 15.7-52.8q11.7 5.1 23.4 10.1 17.3-3.7 34.5-7.5c-8.3-18.6-18.1-25.6-25.6-28.5-5.8-2.3-11.1-2.3-18.5-6.7-8.1-4.9-13-11.5-15.8-16.3-1-2-2.7-4.8-5.5-7.5-1.1-1.1-5.8-5.6-11.8-6.9-8-1.8-17 2-23.4 9.3q-8.9 7-17.8 13.9c1.5-9.2 4.8-21.8 12.5-35.1 3.3-5.8 6.9-10.7 10.3-14.7q-14.5 10.7-29 21.3c-6 8-12.6 18.2-18.3 30.7-9.2 19.9-12.9 38.1-14.4 51.3q-5.3 13.9-10.6 27.7-1.5 10.7-3 21.3-1.9 6.4-3.7 12.7c1.5 2.6 4.2 6.3 8.7 9.3z"/>
	<path id="HeadBand" class="s2" d="m196.2 111.1c1.6-0.2 3.3 0.1 4.7 0.9 1.7 1 3 2.6 3.5 4.5 2.2 7.7 8.7 20.6 10.9 24.9q0.4 0.9 0.7 1.4c1.5 3.1 0.7 6.8-2 9-12 10.1-27.1 14-37.7 15.5-10.3 1.5-18 1-18.3 1-3.4-0.3-6.3-2.8-6.8-6.2l-5.1-30.1c-0.6-3.8 1.7-7.4 5.3-8.4 0.3-0.1 24.5-6.8 43.9-12.3q0.4-0.1 0.9-0.2z"/>
	<path id="Shadow" class="s1" d="m149.6 125.5q10.8-2.7 21.5-5.4 7.2 21 14.4 42-14.6 2.8-29.2 5.5-3.3-21-6.7-42.1z"/>
	<path id="Highlight" class="s3" d="m177.8 114.3q11-3 22-6c0.9-4.6 1.9-11.5 1.5-19.8-1.1-20.9-10.5-35.6-18-47.2-9.8-15-15.7-24.1-28-29.5-14.3-6.3-28.1-3.7-34.5-2 8.7 2.7 20.1 7.2 32 15.3 7.3 4.9 13.2 10.1 17.9 14.7-3.8-2-8.5-4.1-14.3-5.7-5.5-1.7-10.5-2.4-14.6-2.8 7.3 2.9 24.5 11 36.1 29.6 5.1 8.2 7.7 16.1 9.1 22.2q-9.2-7.1-18.3-14.2c3.4 4.5 10.7 15.3 11.1 30.4 0.1 6-0.9 11.1-2 15z"/>
	<path id="Details" class="s4" d="m48.8 146.8c-1.4-4.2-12.8-41.3 10-71.5 10.5-14 24-20.6 31.5-23.5-8.3 7.1-23.4 22-33 46-8.2 20.4-8.9 38.5-8.5 49zm36.5-34.5c3.7 2.2 8.2 2.5 11.5 0.5 4.7-2.8 6.7-9.8 3.5-16-1.3 2.6-3.5 6.1-7 9.5-2.9 2.8-5.8 4.7-8 6zm32.8-55.8c3.7 4.8 9.3 11.2 17.4 17.1 8.5 6.4 16.7 10.1 22.6 12.2-3.4 0-17.2-0.2-28.6-10.8-7.4-6.8-10.3-14.7-11.4-18.5zm-4.5-23.4c1.3-1 4.9-3.6 10.2-3.8 7.2-0.3 12 4 13 4.8-3.4-0.7-7.6-1.3-12.3-1.5-4.1-0.1-7.8 0.2-10.9 0.5z"/>
	<path id="Border" fill-rule="evenodd" class="s4" d="m165 9c23.8 13.7 33.9 39.1 37.8 53.1 2.4 8.5 3.6 17.4 3.5 26.4 0.4 6.6 1.3 13.3 2.8 19.7q0.3 1.2 0.6 2.3 0.9 1.6 1.5 3.4c2.1 7 8.5 19.4 10.7 23.5q0.5 0.9 0.7 1.4c3.2 6.1 1.7 13.6-3.5 18-10.5 9.1-24.7 15.2-41.1 17.9-10.9 1.7-19 1.4-19.9 1.3-6.9-0.3-12.6-5.4-13.8-12.1l-5.6-30q-0.3-1.9-0.2-3.7c-2-3.3-5-7.3-9.4-9.9-0.4 9.9-2.3 21.4-7.3 33.4-10.8 26.5-30.3 41.3-41 47.7-2.1 1.3-4.4 1.9-6.7 1.9-3.5 0-6.9-1.4-9.4-3.9q0-0.1-0.1-0.2c-5.1 3.1-10.8 5.3-16.7 6.4-2.9 0.5-5.8 0.8-8.7 0.8-16.8 0-29.5-8.7-34.2-12.4-4.2-3.3-5.9-8.7-4.4-13.8 0.9-3.4 3.3-6.3 6.4-7.9-1.2-1.3-2.1-2.8-2.7-4.5-1.2-3.3-0.9-6.9 0.6-10 4.6-9.3 8.4-19.1 11.5-29 3.5-11.6 4.8-19.7 5.9-26.8 0.4-2.6 0.8-5 1.2-7.4 0.3-1.4 2.9-14.1 10.2-29.4 9.7-20.1 22.8-35.8 39.2-46.5 4.7-3.1 29.5-18.4 58.1-18.4 12.4 0 23.9 2.9 34 8.7zm-84.9 20.6c-34.5 22.6-43.3 64.8-43.8 67.5-1.6 8.3-2.4 18.6-7.5 35.5-4.1 13.4-8.8 24-12.2 31 1.3 0.6 5 2.2 10.1 2.2 1.7 0 3.5-0.1 5.4-0.6 6.2-1.6 10-5.3 11.5-6.9-1 3.1-4.2 12.3-13.5 19-6.8 4.9-13.6 6.1-17 6.5 2 1.6 12.3 9.6 26.1 9.6q3.1 0 6.4-0.6c17.4-3.2 31.5-19.2 33.7-39.7 1.2 4.1 3.1 12.2 1 22.1-1.4 6.8-4.2 11.9-6.2 15.1 6.7-4.1 25.5-16.7 35.7-41.5 7.8-19 6.8-35.9 5.8-44q1.7-0.2 3.7-0.2c2.7 0 5.7 0.3 8.8 1.2 8.1 2.3 13.9 7.4 17.9 12.4q1.4-0.8 3.1-1.3c0.2 0 24.3-7.2 43.6-13q0.9-0.2 1.9-0.4 0.2 0 0.3 0c-0.9-5.3-1.4-10.2-1.6-14.7 0.1-5.7-0.4-13.9-3-23.2-1.4-4.9-9-32.2-31.7-45.3-9-5.1-18.5-7-27.6-7-25.5 0-48.6 14.7-50.9 16.3zm73.2 101.6l5.6 30c0 0 7.1 0.4 16.7-1.2 10.3-1.6 23.5-5.5 33.8-14.4-1.5-3-9.7-18.1-12.4-27.4-19.6 5.8-43.7 13-43.7 13z"/>
</svg>